Coordinates
version=1
nRows=25
nColumns=28
inDegrees=yes

Units are S.I. units (second, meters, Newtons, ...)
Angles are in degrees.

endheader
time	pelvis_tilt	pelvis_list	pelvis_rotation	pelvis_tx	pelvis_ty	pelvis_tz	hip_flexion_r	hip_adduction_r	hip_rotation_r	knee_angle_r	ankle_angle_r	subtalar_angle_r	mtp_angle_r	hip_flexion_l	hip_adduction_l	hip_rotation_l	knee_angle_l	socket_flexion	socket_adduction	socket_rotation	socket_tx	socket_ty	socket_tz	foot_flex	lumbar_extension	lumbar_bending	lumbar_rotation
      0.32500000	      4.24424037	     -1.37531236	     -5.79576063	     -0.42438785	      1.02051115	      0.29170240	     11.37776652	      3.07058215	      4.25381098	    -64.33879449	      2.85941492	    -15.63821900	     26.46324300	     -6.83099171	      0.70939551	      8.40689388	      6.56895983	      6.01158006	      0.00000000	      0.00000000	      0.00000000	      0.00000000	      0.00000000	      2.08500632	    -13.15442097	     -3.01368205	      5.98218395
      0.32916667	      4.30781266	     -1.37263632	     -5.69155464	     -0.41978156	      1.02087520	      0.29124336	     11.88380219	      3.12117886	      4.26255166	    -64.05851167	      2.90316281	    -15.61849237	     26.46486217	     -7.12494549	      0.77727283	      8.41072913	      6.36162576	      5.79476811	      0.00000000	      0.00000000	      0.00000000	      0.00000000	      0.00000000	      2.10949358	    -13.24513428	     -2.99634956	      5.96653167
      0.33333333	      4.28824607	     -1.66139823	     -5.48863923	     -0.41462747	      1.02106446	      0.29055635	     12.32486329	      3.43887437	      4.11592805	    -63.59753521	      3.65896839	    -14.72289966	     26.82935960	     -7.75056795	      0.43538138	      8.69372501	      7.23056780	      6.29780671	      0.00000000	      0.00000000	      0.00000000	      0.00000000	      0.00000000	      2.22008549	    -13.21191629	     -2.52883097	      5.42214230
      0.33750000	      4.35558624	     -1.65853334	     -5.40229141	     -0.41013666	      1.02135437	      0.29013054	     12.83464632	      3.48088564	      4.12795632	    -63.28574842	      3.70878934	    -14.72190178	     26.82745082	     -8.02740301	      0.50198575	      8.70040150	      6.98332171	      6.06068654	      0.00000000	      0.00000000	      0.00000000	      0.00000000	      0.00000000	      2.26048778	    -13.32142721	     -2.52225323	      5.41529001
      0.34166667	      4.33625294	     -1.84511392	     -5.24415293	     -0.40533683	      1.02159803	      0.28969193	     13.28460857	      3.77595299	      4.14846735	    -62.77458599	      4.34109852	    -14.64753791	     26.96463424	     -8.37669975	      0.30239741	      8.85856287	      7.12457130	      6.11512743	      0.00000000	      0.00000000	      0.00000000	      0.00000000	      0.00000000	      2.50147290	    -13.31149179	     -2.26124418	      5.25703370
      0.34583333	      4.37138049	     -1.88610852	     -5.12622362	     -0.40077766	      1.02183128	      0.28919598	     13.76688151	      3.85583203	      4.14892938	    -62.33701778	      4.49005953	    -14.56739748	     26.99117930	     -8.69434292	      0.30153277	      8.89768672	      7.10228513	      6.05930403	      0.00000000	      0.00000000	      0.00000000	      0.00000000	      0.00000000	      2.51755112	    -13.39952201	     -2.16906129	      5.17232078
      0.35000000	      4.37901249	     -2.14719865	     -4.96481419	     -0.39584543	      1.02197163	      0.28872124	     14.18779974	      4.16578539	      4.03551492	    -61.81082468	      4.98440204	    -14.27008762	     27.09765406	     -9.21530908	      0.00075549	      9.09283662	      7.60561282	      6.29340089	      0.00000000	      0.00000000	      0.00000000	      0.00000000	      0.00000000	      2.61989528	    -13.40365112	     -1.78534748	      4.83464863
      0.35416667	      4.45848425	     -2.27514239	     -4.81321338	     -0.39119955	      1.02222382	      0.28823213	     14.54560867	      4.33348885	      4.01276578	    -61.24398521	      5.24951323	    -14.11158279	     27.10016047	     -9.66658190	     -0.11933217	      9.21272727	      7.78814119	      6.35428072	      0.00000000	      0.00000000	      0.00000000	      0.00000000	      0.00000000	      2.72876698	    -13.52737120	     -1.59673776	      4.63926731
      0.35833333	      4.51253974	     -2.25734778	     -4.74737336	     -0.38686496	      1.02233259	      0.28789042	     15.04995540	      4.34920302	      4.02821733	    -60.83263115	      5.29648933	    -14.11352717	     27.09102570	     -9.92751573	     -0.04762669	      9.22525787	      7.56766782	      6.14004383	      0.00000000	      0.00000000	      0.00000000	      0.00000000	      0.00000000	      2.77907118	    -13.65303811	     -1.60684560	      4.62840909
      0.36250000	      4.50048587	     -2.47499733	     -4.53061218	     -0.38200246	      1.02248116	      0.28739033	     15.39939816	      4.63173612	      3.98325025	    -60.10213621	      5.77983957	    -14.06701885	     27.07431041	    -10.35278627	     -0.30806321	      9.41928374	      7.92079452	      6.33154886	      0.00000000	      0.00000000	      0.00000000	      0.00000000	      0.00000000	      2.93908047	    -13.64116121	     -1.28985497	      4.35631408
      0.36666667	      4.54716347	     -2.44842011	     -4.47169750	     -0.37770682	      1.02253821	      0.28709668	     15.89288493	      4.63635571	      4.00146741	    -59.64045127	      5.82353788	    -14.06871094	     27.06000361	    -10.60486408	     -0.23084608	      9.43559343	      7.70788789	      6.12362902	      0.00000000	      0.00000000	      0.00000000	      0.00000000	      0.00000000	      2.99413394	    -13.77130347	     -1.30817964	      4.34191872
      0.37083333	      4.54288464	     -2.66497569	     -4.23091524	     -0.37285262	      1.02266280	      0.28658377	     16.19375877	      4.90976742	      3.96027084	    -58.82442876	      6.22024794	    -14.07975417	     26.94999862	    -11.04504233	     -0.50068317	      9.65110393	      8.09942406	      6.34864307	      0.00000000	      0.00000000	      0.00000000	      0.00000000	      0.00000000	      3.16234690	    -13.76449372	     -0.99714228	      4.04566882
      0.37500000	      4.57251082	     -2.63272098	     -4.12652452	     -0.36844008	      1.02271510	      0.28624016	     16.61238574	      4.91160333	      4.01525353	    -58.20258667	      6.29557520	    -14.08877112	     26.91439898	    -11.30339339	     -0.43009511	      9.68574755	      7.96751711	      6.22808022	      0.00000000	      0.00000000	      0.00000000	      0.00000000	      0.00000000	      3.24799303	    -13.84487089	     -1.03199625	      4.00693732
      0.37916667	      4.73471453	     -2.86351938	     -3.91197477	     -0.36379017	      1.02299405	      0.28576534	     16.76693323	      5.16346217	      3.90439243	    -57.41694781	      6.71681592	    -14.18054399	     25.65496134	    -11.89536378	     -0.69571441	      9.84242742	      8.28128537	      6.36144235	      0.00000000	      0.00000000	      0.00000000	      0.00000000	      0.00000000	      3.35675307	    -14.07822797	     -0.69961230	      3.68210036
      0.38333333	      4.75764426	     -2.82076493	     -3.85892245	     -0.35961455	      1.02294182	      0.28551305	     17.24265932	      5.14777009	      3.94137447	    -56.85369444	      6.76997538	    -14.18280630	     25.63896281	    -12.10176458	     -0.60831971	      9.87326978	      8.03327626	      6.13983160	      0.00000000	      0.00000000	      0.00000000	      0.00000000	      0.00000000	      3.42533690	    -14.21100109	     -0.74240181	      3.66907527
      0.38750000	      4.63666361	     -2.95654621	     -3.62671946	     -0.35483669	      1.02282012	      0.28514080	     17.63697483	      5.35518519	      3.95994466	    -55.95213933	      7.08630031	    -14.27681986	     25.55095389	    -12.37524957	     -0.81448363	     10.11038804	      8.35969134	      6.34107226	      0.00000000	      0.00000000	      0.00000000	      0.00000000	      0.00000000	      3.59673509	    -14.06204981	     -0.54554656	      3.49058543
      0.39166667	      4.65635059	     -2.90655801	     -3.58130811	     -0.35064470	      1.02272612	      0.28487279	     18.09329350	      5.31253916	      3.97500215	    -55.33895896	      7.12862945	    -14.28850712	     25.52433050	    -12.58263636	     -0.71682873	     10.11678656	      8.12578316	      6.13177810	      0.00000000	      0.00000000	      0.00000000	      0.00000000	      0.00000000	      3.65672594	    -14.19258673	     -0.59094587	      3.46969468
      0.39583333	      4.62891714	     -2.85028128	     -3.42211232	     -0.34608276	      1.02268213	      0.28457551	     18.41662960	      5.29599283	      4.07281615	    -54.44364436	      7.23132167	    -14.33541075	     25.47103989	    -12.82980038	     -0.65728170	     10.19472142	      8.14223096	      6.14708479	      0.00000000	      0.00000000	      0.00000000	      0.00000000	      0.00000000	      3.77646426	    -14.16328664	     -0.66012974	      3.40428511
      0.40000000	      4.58497680	     -2.86893465	     -3.29248258	     -0.34161621	      1.02253128	      0.28432009	     18.79331246	      5.34922252	      4.10591258	    -53.60236900	      7.35416433	    -14.42789400	     25.39156218	    -13.08345013	     -0.69222109	     10.32685942	      8.21034834	      6.16278849	      0.00000000	      0.00000000	      0.00000000	      0.00000000	      0.00000000	      3.89131555	    -14.16318592	     -0.62353848	      3.30716228
      0.40416667	      4.48898355	     -3.13169378	     -3.01767342	     -0.33694859	      1.02241959	      0.28379436	     19.12381863	      5.62249157	      3.95722227	    -52.59666213	      7.44866529	    -14.82509018	     24.99346104	    -13.37637908	     -1.04348325	     10.58234714	      8.52489912	      6.33072101	      0.00000000	      0.00000000	      0.00000000	      0.00000000	      0.00000000	      4.01754400	    -14.09120879	     -0.21890900	      2.93794809
      0.40833333	      4.49096635	     -3.16071265	     -2.84033092	     -0.33262016	      1.02236103	      0.28349271	     19.41139003	      5.68972671	      4.00059077	    -51.66875889	      7.42948402	    -15.22536185	     24.19743232	    -13.64399911	     -1.09649348	     10.74282198	      8.54947315	      6.33305112	      0.00000000	      0.00000000	      0.00000000	      0.00000000	      0.00000000	      4.11611647	    -14.17473251	     -0.14736630	      2.66193675
      0.41250000	      4.47655197	     -3.04802754	     -2.74161566	     -0.32836810	      1.02222170	      0.28323945	     19.75710623	      5.57876506	      4.05849361	    -50.79324375	      7.50007312	    -15.23798960	     24.14060673	    -13.80177550	     -0.94401277	     10.74112313	      8.31779360	      6.18299241	      0.00000000	      0.00000000	      0.00000000	      0.00000000	      0.00000000	      4.20924533	    -14.23825427	     -0.27544396	      2.65351002
      0.41666667	      4.35660555	     -3.12222839	     -2.59315708	     -0.32386053	      1.02190436	      0.28299717	     20.13744406	      5.68212959	      4.07232985	    -49.81455953	      7.60861652	    -15.43549282	     23.82994038	    -14.03421023	     -1.07774477	     10.95243113	      8.56622851	      6.32687915	      0.00000000	      0.00000000	      0.00000000	      0.00000000	      0.00000000	      4.32526610	    -14.14061221	     -0.17622051	      2.56779956
      0.42083333	      4.27163803	     -3.14409131	     -2.45396722	     -0.31941652	      1.02168921	      0.28273637	     20.46642524	      5.73091275	      4.11696992	    -48.80142884	      7.60188019	    -15.71201565	     23.38299361	    -14.22074886	     -1.11840807	     11.05783393	      8.59170377	      6.33209163	      0.00000000	      0.00000000	      0.00000000	      0.00000000	      0.00000000	      4.42538461	    -14.09688345	     -0.12287069	      2.43952911
      0.42500000	      4.23685975	     -3.02780754	     -2.37825968	     -0.31512254	      1.02141324	      0.28254125	     20.79689854	      5.61534171	      4.18335013	    -47.87792903	      7.65461829	    -15.74221451	     23.31479380	    -14.42068777	     -0.97549778	     11.06776701	      8.53640294	      6.30032933	      0.00000000	      0.00000000	      0.00000000	      0.00000000	      0.00000000	      4.51176899	    -14.13636349	     -0.25404978	      2.42167183
